# xmcd CD database file
#
# Track frame offsets:
#	150
#	22803
#	39333
#	61115
#	83015
#	100355
#	125575
#	143780
#	168965
#	193535
#	223608
#
# Disc length: 3323 seconds
#
# Revision: 0
# Processed by: cddbd v1.5.2PL0 Copyright (c) Steve Scherf et al.
# Submitted via: CDex 1.50Beta6
#
DISCID=8a0cf90b
DTITLE=Cafe R&B - blues and all the rest
DYEAR=2002
DGENRE=Blues
TTITLE0=Our Town
TTITLE1=I get higher
TTITLE2=Born under a bad sign
TTITLE3=Snatch it back and hold it
TTITLE4=How Long Blues
TTITLE5=My Love
TTITLE6=WPW
TTITLE7=My Tears
TTITLE8=My Baby
TTITLE9=Killing Floor
TTITLE10=Something down
EXTD=YEAR: 2002
EXTT0=
EXTT1=
EXTT2=
EXTT3=
EXTT4=
EXTT5=
EXTT6=
EXTT7=
EXTT8=
EXTT9=
EXTT10=
PLAYORDER=
